<svg id="dna" xmlns="http://www.w3.org/2000/svg" viewBox="0 0 64 64"><defs><style>.cls-1{fill:#63a6e7;}</style></defs><title>dna</title><g id="dna-2" data-name="dna"><path class="cls-1" d="M29.66,15.34h.18a1.06,1.06,0,0,0,1.05-.91v-.06a15.24,15.24,0,0,1,.42-1.92,1.06,1.06,0,0,0-.75-1.31,1.08,1.08,0,0,0-1.31.73c-.19.71-.35,1.45-.48,2.23a1,1,0,0,0,0,.17A1.09,1.09,0,0,0,29.66,15.34Z"/><path class="cls-1" d="M42.72,2.72h.18c.66-.12,1.36-.2,2.05-.27A1.06,1.06,0,1,0,44.78.32a21,21,0,0,0-2.24.29,1.05,1.05,0,0,0-.89,1,1.36,1.36,0,0,0,0,.2A1.06,1.06,0,0,0,42.72,2.72Z"/><path class="cls-1" d="M55.38,3.26c.64.14,1.31.29,2.06.48a2.23,2.23,0,0,0,.27,0A1.07,1.07,0,0,0,58,1.67c-.72-.18-1.45-.35-2.14-.5A1.1,1.1,0,0,0,54.55,2a1.5,1.5,0,0,0,0,.22A1.06,1.06,0,0,0,55.38,3.26Z"/><path class="cls-1" d="M21.07,60.5c-.64.09-1.31.14-2.06.18a1.06,1.06,0,0,0-1,1.07v0a1.08,1.08,0,0,0,1.07,1h.05c.76,0,1.51-.1,2.24-.19a1.06,1.06,0,0,0,.92-1.19A1.08,1.08,0,0,0,21.07,60.5Z"/><path class="cls-1" d="M36.11,39.18c-.16-.72-.33-1.44-.54-2.16a1.08,1.08,0,0,0-1.3-.75,1.07,1.07,0,0,0-.75,1.31c.18.64.34,1.31.49,2a.13.13,0,0,0,0,.06v.05a1.06,1.06,0,0,0,1,.8.91.91,0,0,0,.23,0,1.08,1.08,0,0,0,.84-1,.77.77,0,0,0,0-.15h0Z"/><path class="cls-1" d="M35.5,49.08a1.06,1.06,0,0,0-1.28.79,14.92,14.92,0,0,1-.59,1.93,1,1,0,0,0-.07.38,1.08,1.08,0,0,0,.69,1,1.22,1.22,0,0,0,.38.07,1.08,1.08,0,0,0,1-.69,19.2,19.2,0,0,0,.67-2.19A1.06,1.06,0,0,0,35.5,49.08Z"/><path class="cls-1" d="M31.06,28.15a1,1,0,0,0,.3,0,1.07,1.07,0,0,0,.77-1,1,1,0,0,0,0-.29c-.21-.73-.39-1.4-.54-2A1.05,1.05,0,0,0,30.27,24a1.07,1.07,0,0,0-.8,1.28c.16.67.36,1.39.57,2.14A1.07,1.07,0,0,0,31.06,28.15Z"/><path class="cls-1" d="M62.93,5.33a1.06,1.06,0,0,0,.35-2.07l-1-.35h0l0,0a1.14,1.14,0,0,0-.73,0c-.22-.73-.45-1.47-.71-2.22a1.07,1.07,0,0,0-2,.69,56.32,56.32,0,0,1,2.76,11.66L51,2.56l.24,0h.12a1.06,1.06,0,0,0,1.06-.95,1,1,0,0,0-.23-.79,1,1,0,0,0-.7-.39C50.68.37,49.93.31,49.24.28a1,1,0,0,0-.51.12,1,1,0,0,0-1.28.15,1.08,1.08,0,0,0,0,1.51L61.71,16.32a24.65,24.65,0,0,1-1,8.06L39.57,3.22a1.11,1.11,0,0,0,0-.8,1.09,1.09,0,0,0-1.39-.57,17.16,17.16,0,0,0-2.06,1,1.07,1.07,0,0,0-.54.93,1.07,1.07,0,0,0,1.07,1,1,1,0,0,0,.54-.14l.56-.3L59.87,26.54a12.88,12.88,0,0,1-2.72,3.8,10.82,10.82,0,0,1-1.4,1.13L33,8.71a12.68,12.68,0,0,1,1.13-1.49A1.08,1.08,0,0,0,34,5.71a1.11,1.11,0,0,0-1.52.09,14.75,14.75,0,0,0-1.39,1.86,1,1,0,0,0-.15.43l-.06.05a1.06,1.06,0,0,0,0,1.51L53.83,32.58A17.23,17.23,0,0,1,46.2,34L30.64,18.43a1,1,0,0,0-1.08-.91,1.08,1.08,0,0,0-1,1.1c0,.74.09,1.49.17,2.24a1.07,1.07,0,0,0,1.06.94h.13a1,1,0,0,0,.7-.4L42.91,33.72a42.47,42.47,0,0,1-9.33-2.55c0-.13-.1-.25-.14-.38a1.08,1.08,0,0,0-1.38-.61,1.05,1.05,0,0,0-.39.27c-10.83-4-19.7-3.36-25.08,1.76C2.87,35.75,1.1,41.27,1.31,48.12a1,1,0,0,0,0,.17,47,47,0,0,0,1.51,10A1.08,1.08,0,0,0,2.41,58l-1-.33a1.06,1.06,0,0,0-1.35.66,1.07,1.07,0,0,0,.66,1.36l1,.34a1,1,0,0,0,.33,0,1.07,1.07,0,0,0,1-.73v-.06c.36,1.31.76,2.64,1.23,4a1.06,1.06,0,0,0,1,.72,1,1,0,0,0,.35-.06,1.06,1.06,0,0,0,.66-1.35c-.15-.46-.29-.91-.43-1.36l0,0H6c.7.18,1.41.34,2.07.49l.22,0a1.08,1.08,0,0,0,1.05-.84,1.08,1.08,0,0,0-.82-1.27c-.7-.15-1.39-.31-2.06-.48a1,1,0,0,0-1.1.38A49.9,49.9,0,0,1,3.63,51l9.46,9.46-.34,0v0a1.1,1.1,0,0,0-1.2.93.61.61,0,0,0,0,.14,1.09,1.09,0,0,0,.94,1.06c.75.09,1.48.17,2.2.22h.08a1,1,0,0,0,.54-.17,1,1,0,0,0,.61.22A1.07,1.07,0,0,0,16.65,61L3.41,47.74a24.59,24.59,0,0,1,1-8L24.64,59.91a1.06,1.06,0,0,0-.29.72.87.87,0,0,0,.06.34,1,1,0,0,0,1,.72.91.91,0,0,0,.33,0l.07,0a21.35,21.35,0,0,0,2.05-.82,1.06,1.06,0,0,0,.51-1.42A1.07,1.07,0,0,0,27,58.87l-.25.1L5.32,37.57a13.11,13.11,0,0,1,2.74-3.82,12.09,12.09,0,0,1,1.37-1.11L31.87,55.07a1.12,1.12,0,0,0-.2.17,13.28,13.28,0,0,1-1.37,1.44,1,1,0,0,0-.35.79,1.06,1.06,0,0,0,.28.71,1,1,0,0,0,.79.36,1.06,1.06,0,0,0,.71-.27l.1-.1a15.11,15.11,0,0,0,1.5-1.6,1.05,1.05,0,0,0,.22-.66,1.14,1.14,0,0,0,.42-.25,1.08,1.08,0,0,0,0-1.51L11.33,31.52A17.14,17.14,0,0,1,18.86,30L34.69,45.83h0a1.06,1.06,0,0,0,1.05,1h0a1.07,1.07,0,0,0,1.06-1v-.47c0-.59,0-1.17-.06-1.78A1.06,1.06,0,0,0,34.87,43h0L22.09,30.21A42.17,42.17,0,0,1,32,32.83c.09.24.17.47.27.73a1.09,1.09,0,0,0,1,.7,1,1,0,0,0,.36-.07,1.06,1.06,0,0,0,.57-.53,38.73,38.73,0,0,0,11.51,2.45h.13c5.3.17,9.68-1.24,12.82-4.23a15.28,15.28,0,0,0,3.48-5.12,1,1,0,0,0,0-.1,25.29,25.29,0,0,0,1.67-10.61.94.94,0,0,0,0-.41A48.72,48.72,0,0,0,62.07,5.1l.52.18A1.33,1.33,0,0,0,62.93,5.33Z"/></g></svg>