<svg id="nose" xmlns="http://www.w3.org/2000/svg" viewBox="0 0 64 64"><defs><style>.cls-1{fill:#63a6e7;}</style></defs><title>nose</title><g id="nose-2" data-name="nose"><path class="cls-1" d="M36.13.28h-.07C35.43.19,34.79.12,34.15.08H34C33.32,0,32.66,0,32,0a32,32,0,0,0-8,63l.09,0,1.19.28.57.12.75.13,1,.16.38,0q.66.09,1.32.15h.13q.75.07,1.53.09h0c.35,0,.69,0,1,0A32,32,0,0,0,36.13.28ZM32,2.13a29.78,29.78,0,0,1,3.22.18l1.07,2.77A218.53,218.53,0,0,0,48.94,31.83c2.1,3.61,2.54,6.72,1.31,9.23-1.94,4-7.56,5.68-10.58,6.08l-.3,0c-3.33.44-6.76.89-8.56,3.25-1.08,1.41-1.44,3.29-1.11,5.75A22.66,22.66,0,0,1,30,59.8l0,2h0q-.68,0-1.35-.12l-.26,0-1.09-.16-.7-.12-.62-.12A29.93,29.93,0,0,1,2.18,33.65s0-.08,0-.13c0-.5,0-1,0-1.52A29.9,29.9,0,0,1,32,2.13Zm0,59.74,0-2a25.3,25.3,0,0,0-.27-4,5.48,5.48,0,0,1,.68-4.16c1.27-1.66,4.12-2,7.14-2.43l.31,0c4.27-.56,10-2.8,12.21-7.26,1.57-3.2,1.11-7-1.37-11.24A216.13,216.13,0,0,1,38.28,4.31l-.64-1.63a29.86,29.86,0,0,1-5.59,59.19Z"/><path class="cls-1" d="M28,44.17c8.31-1.53,11.71-1.45,13-1.25a4.2,4.2,0,0,1-3,.21,1.07,1.07,0,0,0-1.42.52,1.08,1.08,0,0,0,.53,1.42,4.88,4.88,0,0,0,2,.39A6,6,0,0,0,43.24,44a1.63,1.63,0,0,0,.34-2c-.39-.71-1.43-2.6-16,.07-6.11,1.13-10.14.56-11.68-1.63-2.05-2.94.46-8.62,1.6-10.56a1.07,1.07,0,0,0-1.83-1.09c-.2.34-4.78,8.2-1.52,12.87C16.25,44.63,20.9,45.48,28,44.17Z"/></g></svg>