<svg id="scalpel" xmlns="http://www.w3.org/2000/svg" viewBox="0 0 64 64"><defs><style>.cls-1{fill:#63a6e7;}</style></defs><title>scalpel</title><g id="scalpel-2" data-name="scalpel"><path class="cls-1" d="M64,6.71a5,5,0,0,0-8.58-3.55L19.53,39.06a2.44,2.44,0,0,0-.68,2.07L.32,59.66a1.1,1.1,0,0,0-.3,1,1.08,1.08,0,0,0,.67.78,16,16,0,0,0,5.3.88,13.74,13.74,0,0,0,9.8-3.91l7.67-7.68a1.06,1.06,0,0,0,.3-1l-.58-2.92,2.48-2.49.38.09a3.55,3.55,0,0,0,.79.09,3.47,3.47,0,0,0,2.46-1L58.37,14.42h0l4.16-4.16A5,5,0,0,0,64,6.71ZM53.73,16,51.2,10.43l2.56-2.56,2.53,5.58ZM49.55,20.2,47,14.62l2.56-2.56,2.54,5.58ZM23.18,43.77l-1.94,1.94a1.08,1.08,0,0,0-.29,1l.58,2.93-7.25,7.25a12.23,12.23,0,0,1-11.13,3L20.07,43h0a2.17,2.17,0,0,0,.63.24ZM27.77,42a1.32,1.32,0,0,1-1.25.36L21.2,41.1a.2.2,0,0,1-.12-.07A.19.19,0,0,1,21,41l0-.06a.31.31,0,0,1,.08-.31L45.38,16.24l2.54,5.58ZM61,8.74l-3.09,3.09L55.38,6.25,57,4.68A2.87,2.87,0,0,1,61,8.74Z"/><path class="cls-1" d="M15.05,50.15l-2,2a1,1,0,0,0,0,1.42,1,1,0,0,0,1.42,0l2-2a1,1,0,0,0-1.42-1.42Z"/><path class="cls-1" d="M11.05,54.15a1,1,0,0,0,.71,1.71,1,1,0,0,0,.71-.29,1,1,0,0,0,0-1.42A1,1,0,0,0,11.05,54.15Z"/></g></svg>