<svg xmlns="http://www.w3.org/2000/svg" viewBox="0 0 700 700"><path fill="#1d4994" d="M460.09,367.64l39.59,4.61,45.74,5.46c15.25,1.54,30.64,3.08,45.75,4.33s29.38,2.52,42.67,3.22,25.18,1.12,35.54,1.26a134.11,134.11,0,0,0,23.78-1.26c5.18-1.12,7.41,0,6.72,3.78a25.18,25.18,0,0,1-8.26,12.45,77.92,77.92,0,0,1-19.73,13.29,61.13,61.13,0,0,1-28,6.16,274.46,274.46,0,0,1-56-5.18c-16.78-3.5-33.57-7.55-50.08-12.17s-33.44-9.23-50.5-14a356.4,356.4,0,0,0-56-9.79A182.31,182.31,0,0,1,409.16,386a175,175,0,0,1-24.34,3.36,107,107,0,0,1-24.9-1.26,72.25,72.25,0,0,1-23.23-8.25l-9.09,10.63a146,146,0,0,0-18.89,29.24,40.16,40.16,0,0,0-4.47,14c0,3.78-2.52,5.17-6.44,4.33a21.5,21.5,0,0,1-11.61-7.69,40.22,40.22,0,0,1-8.39-17.91,42.93,42.93,0,0,1,3.63-25.88,99.28,99.28,0,0,1,15.11-22.8c7.14-9,15.53-18.33,24.76-28s19.31-19.31,30.08-29,21-18.75,30.78-28S401.05,262.57,409.3,256s14.69-11.75,19.17-15.52a38.12,38.12,0,0,1,19-7.7,79.28,79.28,0,0,1,19.45-1.12,26,26,0,0,1,13,3.92c2.66,2.1,2.38,4.48-1.12,7.27q-10.77,8.26-28,23.09c-11.19,9.79-22.94,20.56-35.39,32.59s-25.18,24.07-37.92,37.22-22.94,24.34-32.31,35a184.25,184.25,0,0,0,48.12-10.63,374.47,374.47,0,0,0,58.76-25.6,468.43,468.43,0,0,0,59-37.21,275.86,275.86,0,0,0,49-45.89,147.24,147.24,0,0,0,28-51.49A79.45,79.45,0,0,0,585.3,146,50.52,50.52,0,0,0,561,119.17a85.41,85.41,0,0,0-39-8.25,190.65,190.65,0,0,0-49.24,7,429.9,429.9,0,0,0-53.17,17.49A528.56,528.56,0,0,0,365.37,161c-17.76,9.66-34.13,19.59-49.24,29.52a392.83,392.83,0,0,0-39,29.52,146.72,146.72,0,0,0-24.35,25.88c-1.4,1.68-3.35.7-5.87-3.08a35.09,35.09,0,0,1-5.18-16.08,57.28,57.28,0,0,1,2.52-23.51,54.2,54.2,0,0,1,17.91-25.18,347.44,347.44,0,0,1,48.12-34.84,456.87,456.87,0,0,1,58.2-30.07,352.32,352.32,0,0,1,63.1-20.43,239.67,239.67,0,0,1,62.95-6,165,165,0,0,1,57.22,12.74,118.15,118.15,0,0,1,46,36.23,112.76,112.76,0,0,1,24.9,53,101.71,101.71,0,0,1-5.46,50.23,150,150,0,0,1-28,45.32,268,268,0,0,1-40.15,37.5,280.44,280.44,0,0,1-46,28A248.6,248.6,0,0,1,460.09,367.64Z"/><path fill="#1d4994" d="M453.09,568.53C399.93,600.71,335.43,619,299.2,598.33S267.86,551,269.26,523.48s5.18-28.82,0-35.53-12.45-7.42-31.62-12.31A31.9,31.9,0,0,1,212,438.54c.13-.74.29-1.48.48-2.21a49.56,49.56,0,0,1,12.87-22.81s-3.63-1.82-18.74-10.91a32.36,32.36,0,0,1-12.18-48.27,62.52,62.52,0,0,0,11.48-29.65s-48.83-9.52-73.73-32.74,13-37.77,50.5-124.23C218.34,85.6,194,59.15,168.67.54A381.1,381.1,0,0,0,2.89,363.72C30,573.57,225.75,723,439.94,696.4A391.7,391.7,0,0,0,699.32,551.46C612.3,505,498.7,541,453.09,568.53Z"/></svg>